<?xml version="1.0" standalone="no"?><svg xmlns="http://www.w3.org/2000/svg" viewBox="0 0 1440 320"><path fill="#fba82c" fill-opacity="1" d="M0,160L40,144C80,128,160,96,240,69.3C320,43,400,21,480,21.3C560,21,640,43,720,85.3C800,128,880,192,960,229.3C1040,267,1120,277,1200,245.3C1280,213,1360,139,1400,101.3L1440,64L1440,320L1400,320C1360,320,1280,320,1200,320C1120,320,1040,320,960,320C880,320,800,320,720,320C640,320,560,320,480,320C400,320,320,320,240,320C160,320,80,320,40,320L0,320Z"></path></svg>